<svg width="64" height="64" viewBox="0 0 64 64" fill="none" xmlns="http://www.w3.org/2000/svg">
<path d="M62.9814 20.5489L59.4244 16.9779C57.9934 15.5409 55.7884 16.7129 55.7884 16.7129L55.7824 16.7089C53.4844 17.6659 50.7384 17.2149 48.8724 15.3419C47.0054 13.4659 46.5644 10.7139 47.5354 8.41889C47.5444 8.39689 47.5444 8.38289 47.5544 8.35989C48.3844 6.16389 47.2044 4.72289 46.8564 4.35889L43.2824 0.770888C41.7214 -0.796112 40.0264 0.628888 39.6114 1.02789L1.03536 39.4499C-1.10764 41.5819 0.659359 43.2849 0.659359 43.2849L4.79836 47.4399C4.79836 47.4399 5.81936 48.5439 7.80136 47.7439C7.86436 47.7189 7.91236 47.7079 7.96736 47.6909C10.3234 46.5559 13.2284 46.9469 15.1774 48.9029C17.0334 50.7679 17.4844 53.4969 16.5364 55.7849H16.5394C16.5394 55.7849 15.3354 58.0199 16.7834 59.4729L20.4084 63.1129C20.6664 63.3669 22.5714 65.0779 24.9494 62.7119L63.2784 24.5389C63.8564 23.8659 64.7584 22.3329 62.9814 20.5489ZM23.4564 45.1989L23.1274 45.5249C22.7584 45.8929 22.3804 45.6569 22.1884 45.4859L17.9394 41.2189L16.8694 42.2859C16.3274 42.8269 15.8644 42.2689 15.8644 42.2689L15.7224 42.1259C15.7224 42.1259 15.3374 41.7799 15.9234 41.1979L19.1774 37.9569C19.1774 37.9569 19.6894 37.3909 20.1774 37.8789L20.2884 37.9899C20.6534 38.3779 20.4254 38.7279 20.2684 38.8979L19.1644 39.9999L23.2494 44.1029C23.7564 44.6109 23.6134 44.9929 23.4564 45.1989ZM27.0734 41.5959L26.8074 41.8609C26.3934 42.2739 25.8514 41.7979 25.7194 41.6719L21.2324 37.1649C21.2324 37.1649 20.6134 36.5279 21.1214 36.0239L21.3104 35.8359C21.3104 35.8359 21.8484 35.3349 22.5884 36.0789L26.9934 40.5009C27.4804 40.9909 27.2354 41.4089 27.0734 41.5959ZM32.5474 35.8729C32.2764 36.4079 31.9274 36.9159 31.4504 37.3929C30.6104 38.2299 29.7144 38.6139 28.7624 38.5469C27.8094 38.4829 26.8584 37.9729 25.9084 37.0199C25.3114 36.4189 24.8964 35.7869 24.6654 35.1149C24.4344 34.4459 24.4034 33.7889 24.5734 33.1389C24.7434 32.4889 25.1024 31.8929 25.6524 31.3439C26.0924 30.9059 26.6444 30.5719 27.2554 30.2989C27.4584 30.2659 27.8324 30.2629 28.0104 30.6779L28.0794 30.8399C28.3834 31.5499 27.5334 31.7869 27.5334 31.7869L27.5344 31.7899C27.4994 31.8069 27.4604 31.8209 27.4244 31.8369C27.1304 31.9759 26.8784 32.1519 26.6674 32.3639C26.2064 32.8209 26.0224 33.3509 26.1144 33.9489C26.2064 34.5459 26.5604 35.1529 27.1764 35.7719C28.4584 37.0579 29.5844 37.2219 30.5504 36.2589C30.8314 35.9809 31.1034 35.5729 31.3704 35.1129C31.3734 35.1129 31.3904 35.1189 31.3904 35.1189C31.3904 35.1189 31.7424 34.5119 32.0734 34.8429L32.2784 35.0499C32.6254 35.3709 32.6044 35.6809 32.5474 35.8729ZM38.3884 30.3259L37.8034 30.9089C37.4394 31.2709 36.8674 31.1349 36.8674 31.1349L33.5054 30.3429L33.3594 31.2289L34.7474 32.6229C35.2454 33.1219 35.1344 33.5069 34.9774 33.7269L34.6744 34.0249C34.2484 34.4519 33.7674 34.0789 33.5864 33.9059L29.0694 29.3709C29.0694 29.3709 28.4334 28.7389 28.8924 28.2839L29.1744 28.0029C29.3514 27.8549 29.7724 27.6289 30.3254 28.1839L32.2934 30.1599L32.0974 28.9999L31.7574 25.9399C31.7574 25.9399 31.7044 25.4829 32.0514 25.1369L32.5094 24.6799C32.5094 24.6799 33.0644 24.1199 33.1564 24.9249C33.1564 24.9249 33.1584 24.9249 33.1584 24.9279L33.5964 28.6879L38.1264 29.7249C38.3684 29.7909 38.7534 29.9609 38.3884 30.3259ZM42.5284 26.3299L40.3154 28.5349C39.7394 29.1089 39.2024 28.6719 39.0494 28.5239L34.5814 24.0399C34.5814 24.0399 34.0264 23.2959 34.6104 22.7129L36.7744 20.5589C36.7744 20.5589 37.2304 20.0489 37.6074 20.4279L37.7804 20.5999C37.7804 20.5999 38.3114 21.0269 37.7734 21.5619L36.5944 22.7349C36.1434 23.1859 36.5914 23.6099 36.5914 23.6099L36.9394 23.9559C36.9394 23.9559 37.4104 24.4489 37.9464 23.9139L38.8944 22.9689C38.8944 22.9689 39.3654 22.4839 39.7274 22.8459L39.8684 22.9879C40.2644 23.4199 40.0874 23.7549 39.9524 23.9129L39.0404 24.8219C38.4694 25.3899 38.7914 25.8109 38.8934 25.9169L39.5174 26.5439C39.7054 26.6909 40.0124 26.8199 40.3394 26.4939L41.5034 25.3339C41.5034 25.3339 41.9814 24.8179 42.2944 25.1309L42.4924 25.3289C42.9134 25.7639 42.6874 26.1479 42.5284 26.3299ZM45.7044 23.0409L45.5124 23.2299C45.1314 23.6089 44.6624 23.2129 44.5104 23.0649L40.8854 19.4259C40.4154 18.9549 40.0104 19.2459 39.8694 19.3769L39.2124 20.0329C38.7544 20.4899 38.3264 19.9939 38.3264 19.9939L38.1524 19.8179C38.1524 19.8179 37.7704 19.4379 38.2284 18.9809L41.5974 15.6269C41.8004 15.4439 42.2094 15.1709 42.5604 15.5229L42.6694 15.6339C43.0584 16.0439 42.8344 16.4059 42.6934 16.5649L42.0154 17.2389C41.9244 17.3339 41.6264 17.7209 42.1714 18.2699L45.7354 21.8489C45.9324 22.0709 46.2134 22.5419 45.7044 23.0409Z" fill="white"/>
</svg>
